# xmcd
#
# Track frame offsets:
#	150
#	14827
#	35000
#	53932
#	64615
#	80240
#	91997
#	106215
#	121970
#	139645
#	162300
#	178157
#
# Disc length: 2654 seconds
# Revision: 3
# Processed by: cddbd v1.5.2PL0 Copyright (c) Steve Scherf et al.
# Submitted via: dBpowerAMP V12.0
#
DISCID=a70a5c0c
DTITLE=Phil Leadbetter - Slide Effects
DYEAR=2005
DGENRE=Country
TTITLE0=California Cotton Fields
TTITLE1=Moon Racer
TTITLE2=Sea of Tranquility
TTITLE3=There's More Pretty Girls Than One
TTITLE4=Dad's Intro - Closer Walk With Thee
TTITLE5=Glide Path
TTITLE6=Tattoos of Life
TTITLE7=Steel Guitar Rag
TTITLE8=My Little Dancing Girl
TTITLE9=Fields of Gold
TTITLE10=Remington Ride
TTITLE11=Water from the Well
EXTD=
EXTT0=
EXTT1=
EXTT2=
EXTT3=
EXTT4=
EXTT5=
EXTT6=
EXTT7=
EXTT8=
EXTT9=
EXTT10=
EXTT11=
PLAYORDER=
